<?xml version="1.0" encoding="utf-8"?>
<!-- Generator: Adobe Illustrator 18.1.1, SVG Export Plug-In . SVG Version: 6.00 Build 0)  -->
<svg version="1.1" id="Layer_1" xmlns="http://www.w3.org/2000/svg" xmlns:xlink="http://www.w3.org/1999/xlink" x="0px" y="0px"
	 viewBox="0 0 356.5 132.5" enable-background="new 0 0 356.5 132.5" xml:space="preserve">
<g>
	<polygon fill="#1C75BC" points="95.9,37.9 90.6,40.9 85.4,44 80.1,47 80.1,47 74.9,50 69.6,53.1 64.4,56.1 59.2,59.1 53.9,62.2 
		53.9,68.2 53.9,74.3 53.9,86.4 53.9,92.4 59.2,89.4 64.4,86.4 69.6,83.4 74.9,80.3 80.1,77.3 85.4,74.3 90.6,71.2 90.6,83.4 
		85.4,86.4 80.1,89.4 74.9,92.4 69.6,95.5 64.4,98.5 59.2,101.5 53.9,104.6 53.9,110.6 53.9,116.7 59.2,113.7 64.4,110.6 
		69.6,107.6 74.9,104.6 80.1,101.5 85.4,98.5 90.6,95.5 95.9,92.4 101.1,89.4 101.1,53.1 95.9,56.1 90.6,59.1 85.4,62.2 80.1,65.2 
		74.9,68.2 69.6,71.2 64.4,74.3 64.4,68.2 69.6,65.2 74.9,62.2 80.1,59.1 85.4,56.1 90.6,53.1 95.9,50 101.1,47 101.1,40.9 
		101.1,34.9 	"/>
	<path fill="#ED1C24" d="M50.1,110.6l0-6.1l0-6.1l0-6.1l0-6.1l0-6.1l0-6.1l0-6.1l0-6.1l-5.2-3l-5.2-3l-5.2-3l-5.2-3l-5.2-3l0,0
		l-5.2-3l-5.2-3l-5.2-3l-5.2-3l0,6.1l0,6.1l0,6.1l0,6.1l0,6.1l0,6.1l0,6.1l0,6.1l0,6.1l5.2,3l5.2,3l0-6.1l0-6.1l0-6.1l5.2,3l5.2,3
		l5.2,3l5.2,3l5.2,3l0,6.1l0,6.1l0,6.1l5.2,3l5.2,3L50.1,110.6z M34.4,77.3l-5.2-3l-5.2-3l-5.2-3l-5.2-3l0-6.1l0-6.1l5.2,3l5.2,3
		l10.5,6.1l5.2,3l0,0l0,6.1l0,6.1L34.4,77.3z"/>
	<g>
		<path fill="#414042" d="M142.2,53.5v4h-15.9v31.8h-4V57.5h-15.9v-4H142.2z"/>
		<path fill="#414042" d="M178.8,57.5h-28.7v11.9h23.1v4.1h-23.1v11.9h28.7v4H146V53.5h32.7V57.5z"/>
		<path fill="#414042" d="M190.1,57.5c-1,0-1.9,0.9-1.9,1.9v23.9c0,1,0.9,1.9,1.9,1.9h29.8v4h-29.8c-3.3,0-6-2.6-6-6V59.5
			c0-3.3,2.6-6,6-6h29.8v4H190.1z"/>
		<path fill="#414042" d="M261.9,53.5v35.9h-4.1V73.5h-28.7v15.9h-4V53.5h4v15.9h28.7V53.5H261.9z"/>
		<path fill="#414042" d="M299.3,53.5h4v35.9h-5.5l-26.3-31.3v31.3h-4V53.5h5.5l26.3,31.3V53.5z"/>
		<path fill="#414042" d="M309,53.5h4v35.9h-4V53.5z"/>
		<path fill="#414042" d="M354.1,53.5l-15,17.9l15.1,17.9h-5.2l-13.4-15.9H324v15.9h-4.1V53.5h4.1v15.9h11.6
			c4.3-5.2,9-10.7,13.4-15.9H354.1z"/>
	</g>
	<polygon fill="#006838" points="62.7,9.9 52,3.9 44.5,8.2 37.8,12.1 52,19.4 66.2,12.1 	"/>
	<polygon fill="#FFCE06" points="3.9,31.7 52,60 100.1,31.7 86.6,23.9 52,43.4 17.4,23.9 	"/>
</g>
<g>
	<path fill="#414042" d="M108.9,94v9.2h-0.7V94h-2.8v-0.6h6.3V94H108.9z"/>
	<path fill="#414042" d="M115.8,103.2v-9.8h4.6V94h-3.9v3.9h3.6v0.6h-3.6v4h4.1v0.6H115.8z"/>
	<path fill="#414042" d="M131.7,102.9c-0.8,0.3-1.6,0.5-2.5,0.5c-1.3,0-2.4-0.5-3.3-1.4c-0.8-0.9-1.3-2.1-1.3-3.5
		c0-1.6,0.5-2.9,1.4-3.8c0.9-1,2.1-1.4,3.5-1.4c0.8,0,1.5,0.1,2.2,0.4v0.7c-0.7-0.3-1.4-0.5-2.2-0.5c-1.2,0-2.2,0.4-3,1.3
		s-1.2,1.9-1.2,3.3c0,1.3,0.4,2.4,1.1,3.2c0.7,0.8,1.7,1.2,2.8,1.2c0.9,0,1.7-0.2,2.4-0.5V102.9z"/>
	<path fill="#414042" d="M142.6,103.2v-4.7h-5.6v4.7h-0.7v-9.8h0.7v4.5h5.6v-4.5h0.7v9.8H142.6z"/>
	<path fill="#414042" d="M155,103.2l-5.8-7.9c-0.1-0.2-0.2-0.3-0.3-0.5l-0.1-0.1h0c0,0.1,0,0.3,0,0.4v8.1h-0.7v-9.8h0.5l5.8,7.9
		c0.1,0.2,0.3,0.4,0.4,0.6h0c0-0.3,0-0.6,0-0.8v-7.7h0.7v9.8H155z"/>
	<path fill="#414042" d="M160.4,103.2v-9.8h0.7v9.8H160.4z"/>
	<path fill="#414042" d="M165.7,102.8v-0.8c0.7,0.4,1.4,0.7,2.1,0.7c0.8,0,1.3-0.2,1.7-0.5c0.4-0.3,0.6-0.8,0.6-1.3
		c0-0.5-0.1-0.9-0.4-1.2c-0.3-0.3-0.8-0.7-1.7-1.2c-1-0.6-1.6-1.1-1.9-1.5c-0.3-0.4-0.4-0.8-0.4-1.3c0-0.7,0.3-1.3,0.8-1.8
		s1.3-0.7,2.2-0.7c0.6,0,1.2,0.1,1.8,0.3v0.7c-0.6-0.3-1.2-0.4-1.8-0.4c-0.7,0-1.2,0.2-1.6,0.5s-0.6,0.8-0.6,1.3
		c0,0.5,0.1,0.9,0.4,1.2s0.8,0.7,1.7,1.2c0.9,0.5,1.5,1,1.8,1.4c0.3,0.4,0.5,0.9,0.5,1.4c0,0.8-0.3,1.4-0.8,1.8s-1.3,0.7-2.2,0.7
		c-0.3,0-0.7-0.1-1.2-0.2S165.9,103,165.7,102.8z"/>
	<path fill="#414042" d="M181.8,102.9c-0.8,0.3-1.6,0.5-2.5,0.5c-1.3,0-2.4-0.5-3.3-1.4c-0.8-0.9-1.3-2.1-1.3-3.5
		c0-1.6,0.5-2.9,1.4-3.8c0.9-1,2.1-1.4,3.5-1.4c0.8,0,1.5,0.1,2.2,0.4v0.7c-0.7-0.3-1.4-0.5-2.2-0.5c-1.2,0-2.2,0.4-3,1.3
		s-1.2,1.9-1.2,3.3c0,1.3,0.4,2.4,1.1,3.2c0.7,0.8,1.7,1.2,2.8,1.2c0.9,0,1.7-0.2,2.4-0.5V102.9z"/>
	<path fill="#414042" d="M192.7,103.2v-4.7h-5.6v4.7h-0.7v-9.8h0.7v4.5h5.6v-4.5h0.7v9.8H192.7z"/>
	<path fill="#414042" d="M198.3,103.2v-9.8h4.6V94h-3.9v3.9h3.6v0.6h-3.6v4h4.1v0.6H198.3z"/>
	<path fill="#414042" d="M220.9,102.5c-1,0.6-2.1,0.9-3.1,0.9c-1.3,0-2.4-0.5-3.2-1.4c-0.8-0.9-1.2-2.1-1.2-3.6
		c0-1.5,0.4-2.7,1.3-3.7s2.1-1.5,3.6-1.5c0.9,0,1.7,0.2,2.5,0.5v0.7c-0.9-0.4-1.8-0.6-2.6-0.6c-1.2,0-2.2,0.4-3,1.3
		c-0.8,0.8-1.1,1.9-1.1,3.2c0,1.4,0.4,2.5,1.1,3.2c0.7,0.8,1.7,1.2,2.8,1.2c0.9,0,1.7-0.2,2.3-0.6v-3.2H218v-0.6h3V102.5z"/>
	<path fill="#414042" d="M225.6,103.2v-9.8h4.6V94h-3.9v3.9h3.6v0.6h-3.6v4h4.1v0.6H225.6z"/>
	<path fill="#414042" d="M235,103.2v-9.8h2.6c0.8,0,1.4,0.2,1.8,0.6c0.5,0.4,0.7,1,0.7,1.6c0,0.6-0.2,1.1-0.5,1.5
		c-0.3,0.4-0.7,0.7-1.3,0.9v0c0.7,0.1,1.2,0.3,1.6,0.7c0.4,0.4,0.6,1,0.6,1.6c0,0.8-0.3,1.5-0.8,2c-0.5,0.5-1.2,0.8-2.1,0.8H235z
		 M235.6,94v3.8h1.4c0.7,0,1.3-0.2,1.7-0.5c0.4-0.4,0.6-0.9,0.6-1.5c0-1.2-0.7-1.8-2.1-1.8H235.6z M235.6,98.4v4.2h1.8
		c0.8,0,1.4-0.2,1.8-0.6c0.4-0.4,0.6-0.9,0.6-1.6c0-1.4-0.9-2-2.8-2H235.6z"/>
	<path fill="#414042" d="M251.4,103.2l-1.1-3H246l-1.1,3h-0.7l3.7-9.8h0.6l3.7,9.8H251.4z M248.3,95c0-0.1-0.1-0.3-0.1-0.4
		c0-0.1-0.1-0.2-0.1-0.3h0c-0.1,0.3-0.2,0.5-0.2,0.7l-1.6,4.5h3.8L248.3,95z M247,92.7c-0.1,0-0.2,0-0.3-0.1
		c-0.1-0.1-0.2-0.2-0.2-0.4c0-0.1,0.1-0.3,0.2-0.3c0.1-0.1,0.2-0.1,0.3-0.1c0.1,0,0.3,0,0.4,0.1c0.1,0.1,0.2,0.2,0.2,0.3
		c0,0.1,0,0.3-0.1,0.4C247.2,92.7,247.1,92.7,247,92.7z M249.3,92.7c-0.1,0-0.2,0-0.3-0.1c-0.1-0.1-0.2-0.2-0.2-0.4
		c0-0.1,0-0.3,0.1-0.3c0.1-0.1,0.2-0.1,0.3-0.1c0.1,0,0.3,0,0.4,0.1c0.1,0.1,0.2,0.2,0.2,0.3c0,0.1,0,0.3-0.1,0.4
		C249.5,92.7,249.4,92.7,249.3,92.7z"/>
	<path fill="#414042" d="M262.8,99.3c0,2.7-1.2,4.1-3.5,4.1c-2.2,0-3.3-1.3-3.3-3.9v-6h0.7v5.9c0,2.3,0.9,3.4,2.8,3.4
		c1.8,0,2.7-1.1,2.7-3.3v-6h0.7V99.3z"/>
	<path fill="#414042" d="M267.6,103.2v-9.8h2.5c1.6,0,2.9,0.4,3.7,1.2s1.3,2,1.3,3.5c0,1.5-0.5,2.7-1.4,3.6
		c-0.9,0.9-2.2,1.4-3.8,1.4H267.6z M268.3,94v8.6h1.5c1.5,0,2.6-0.4,3.3-1.1c0.8-0.8,1.2-1.8,1.2-3.3c0-2.8-1.5-4.2-4.4-4.2H268.3z"
		/>
	<path fill="#414042" d="M279.4,103.2v-9.8h4.6V94h-3.9v3.9h3.6v0.6h-3.6v4h4.1v0.6H279.4z"/>
	<path fill="#414042" d="M288.5,102.8v-0.8c0.7,0.4,1.4,0.7,2.1,0.7c0.8,0,1.3-0.2,1.7-0.5c0.4-0.3,0.6-0.8,0.6-1.3
		c0-0.5-0.1-0.9-0.4-1.2c-0.3-0.3-0.8-0.7-1.7-1.2c-1-0.6-1.6-1.1-1.9-1.5c-0.3-0.4-0.4-0.8-0.4-1.3c0-0.7,0.3-1.3,0.8-1.8
		c0.5-0.5,1.3-0.7,2.2-0.7c0.6,0,1.2,0.1,1.8,0.3v0.7c-0.6-0.3-1.2-0.4-1.8-0.4c-0.7,0-1.2,0.2-1.6,0.5s-0.6,0.8-0.6,1.3
		c0,0.5,0.1,0.9,0.4,1.2s0.8,0.7,1.7,1.2c0.9,0.5,1.5,1,1.8,1.4c0.3,0.4,0.5,0.9,0.5,1.4c0,0.8-0.3,1.4-0.8,1.8
		c-0.5,0.5-1.3,0.7-2.2,0.7c-0.3,0-0.7-0.1-1.2-0.2C289.1,103.1,288.7,103,288.5,102.8z"/>
	<path fill="#414042" d="M300.8,99.5v3.7h-0.7v-3.7l-3-6.1h0.8l2.3,4.7c0.1,0.2,0.2,0.4,0.3,0.7h0c0.1-0.2,0.2-0.4,0.3-0.7l2.4-4.7
		h0.7L300.8,99.5z"/>
	<path fill="#414042" d="M307.5,102.8v-0.8c0.7,0.4,1.4,0.7,2.1,0.7c0.8,0,1.3-0.2,1.7-0.5c0.4-0.3,0.6-0.8,0.6-1.3
		c0-0.5-0.1-0.9-0.4-1.2c-0.3-0.3-0.8-0.7-1.7-1.2c-1-0.6-1.6-1.1-1.9-1.5c-0.3-0.4-0.4-0.8-0.4-1.3c0-0.7,0.3-1.3,0.8-1.8
		c0.5-0.5,1.3-0.7,2.2-0.7c0.6,0,1.2,0.1,1.8,0.3v0.7c-0.6-0.3-1.2-0.4-1.8-0.4c-0.7,0-1.2,0.2-1.6,0.5s-0.6,0.8-0.6,1.3
		c0,0.5,0.1,0.9,0.4,1.2s0.8,0.7,1.7,1.2c0.9,0.5,1.5,1,1.8,1.4c0.3,0.4,0.5,0.9,0.5,1.4c0,0.8-0.3,1.4-0.8,1.8
		c-0.5,0.5-1.3,0.7-2.2,0.7c-0.3,0-0.7-0.1-1.2-0.2C308.1,103.1,307.7,103,307.5,102.8z"/>
	<path fill="#414042" d="M319.7,94v9.2H319V94h-2.8v-0.6h6.3V94H319.7z"/>
	<path fill="#414042" d="M326.5,103.2v-9.8h4.6V94h-3.9v3.9h3.6v0.6h-3.6v4h4.1v0.6H326.5z"/>
	<path fill="#414042" d="M344.4,103.2v-7c0-0.2,0-0.6,0.1-1.4h0c-0.1,0.4-0.3,0.7-0.4,0.9l-3.5,7.5h-0.2l-3.5-7.5
		c-0.1-0.2-0.2-0.5-0.3-0.9h0c0,0.4,0,0.9,0,1.3v7.1h-0.7v-9.8h0.6l3.7,7.9c0,0,0,0.1,0.1,0.2s0.1,0.2,0.1,0.2
		c0,0.1,0.1,0.3,0.1,0.4h0l0.1-0.2c0,0,0.1-0.2,0.2-0.6l3.6-7.8h0.6v9.8H344.4z"/>
	<path fill="#414042" d="M350,103.2v-9.8h4.6V94h-3.9v3.9h3.6v0.6h-3.6v4h4.1v0.6H350z"/>
</g>
<text transform="matrix(1 0 0 1 104.8076 197.1893)" fill="#414042" font-family="'YuGothicUI-Light'" font-size="14" letter-spacing="2">technische Gebäudesysteme</text>
</svg>
